<mxfile host="app.diagrams.net" modified="2024-01-23T16:32:13.942Z" agent="Mozilla/5.0 (Windows NT 10.0; Win64; x64) AppleWebKit/537.36 (KHTML, like Gecko) Chrome/120.0.0.0 Safari/537.36" version="22.1.21" etag="jD4Yage8rkOlKX6OPo_g" type="github">
  <diagram name="Page-1" id="svEkmue3AndsfnjPeOkF">
    <mxGraphModel>
      <root>
        <mxCell id="0" />
        <mxCell id="1" parent="0" />
      </root>
    </mxGraphModel>
  </diagram>
</mxfile>
